# xmcd
#
# Track frame offsets:
#	150
#	21145
#	33960
#	54023
#	68855
#	83278
#	96059
#	117060
#	129873
#	149962
#	164746
#	179156
#
# Disc length: 2559 seconds
#
# Revision: 0
# Processed by: cddbd v1.5.2PL0 Copyright (c) Steve Scherf et al.
# Submitted via: audiograbber 1.83.01
#
DISCID=9c09fd0c
DTITLE=Various Artist - CB20090 Hot Hits Vol. 90
DYEAR=1900
DGENRE=Country
TTITLE0=Alan Jackson - Little Man (Vocals)
TTITLE1=Lee Ann Womack - (Now You See Me) Now You Don't (Vocals)
TTITLE2=Mark Wills - She's In Love (Vocals)
TTITLE3=Neal McCoy - The Girl Of Summer (Vocals)
TTITLE4=Shana Petrone - This Time (Vocals)
TTITLE5=Deryl Dodd - John Roland Wood (Vocals)
TTITLE6=Alan Jackson - Little Man
TTITLE7=Lee Ann Womack - (Now You See Me) Now You Don't
TTITLE8=Mark Wills - She's In Love
TTITLE9=Neal McCoy - The Girls Of Summer
TTITLE10=Shana Petrone - This Time
TTITLE11=Deryl Dodd - John Roland Wood
EXTD=
EXTT0=
EXTT1=
EXTT2=
EXTT3=
EXTT4=
EXTT5=
EXTT6=
EXTT7=
EXTT8=
EXTT9=
EXTT10=
EXTT11=
PLAYORDER=
